<svg id="Layer_1" data-name="Layer 1" xmlns="http://www.w3.org/2000/svg" viewBox="0 0 50 50"><defs><style>.cls-1{fill:#fecd81;}</style></defs><path class="cls-1" d="M37.59,17.52A14.65,14.65,0,1,0,32.48,37.6,14.64,14.64,0,0,0,37.59,17.52Z"/><path class="cls-1" d="M13.25,13.61l.36-.36L9,8.6A.25.25,0,1,0,8.6,9Z"/><path class="cls-1" d="M17.24,6.26a.25.25,0,0,0-.14.32L18.51,10,19,9.79l-1.41-3.4A.24.24,0,0,0,17.24,6.26Z"/><path class="cls-1" d="M25,1.8a.25.25,0,0,0-.25.25V8.64h.5V2.05A.25.25,0,0,0,25,1.8Z"/><path class="cls-1" d="M9.79,19l.19-.46L6.58,17.1a.25.25,0,0,0-.32.14.25.25,0,0,0,.13.32Z"/><path class="cls-1" d="M40.21,19l3.4-1.41a.24.24,0,0,0,.13-.32.25.25,0,0,0-.32-.14L40,18.51C40.09,18.66,40.14,18.82,40.21,19Z"/><path class="cls-1" d="M8.64,24.75H2.05a.25.25,0,1,0,0,.5H8.64Z"/><path class="cls-1" d="M41.4,9a.25.25,0,0,0-.35-.35l-4.66,4.66.35.35Z"/><path class="cls-1" d="M32.9,6.58a.25.25,0,0,0-.14-.32.23.23,0,0,0-.32.13L31,9.79l.46.19Z"/><path class="cls-1" d="M48,24.75H41.36v.5H48a.25.25,0,0,0,0-.5Z"/><path class="cls-1" d="M36.75,36.39l-.36.36,4.66,4.65a.25.25,0,0,0,.18.08.23.23,0,0,0,.17-.08.24.24,0,0,0,0-.35Z"/><path class="cls-1" d="M40.21,31l-.19.46,3.4,1.41.09,0a.25.25,0,0,0,.23-.16.23.23,0,0,0-.13-.32Z"/><path class="cls-1" d="M9.79,31l-3.4,1.41a.24.24,0,0,0-.13.32.25.25,0,0,0,.23.16l.09,0L10,31.49C9.91,31.34,9.85,31.18,9.79,31Z"/><path class="cls-1" d="M31,40.21l1.41,3.4a.25.25,0,0,0,.23.15.15.15,0,0,0,.09,0,.25.25,0,0,0,.14-.32L31.49,40Z"/><path class="cls-1" d="M8.6,41.05a.24.24,0,0,0,0,.35.23.23,0,0,0,.17.08A.25.25,0,0,0,9,41.4l4.66-4.66-.35-.35Z"/><path class="cls-1" d="M17.1,43.42a.25.25,0,0,0,.14.32.15.15,0,0,0,.09,0,.25.25,0,0,0,.23-.15L19,40.21,18.51,40Z"/><path class="cls-1" d="M24.75,48a.25.25,0,0,0,.5,0V41.36h-.5Z"/></svg>