<svg id="Layer_1" data-name="Layer 1" xmlns="http://www.w3.org/2000/svg" viewBox="0 0 50 50"><defs><style>.cls-1{fill:#8ac0cf;}.cls-2{fill:#cae2e9;}</style></defs><path class="cls-1" d="M44.19,20.9c0-.15,0-.28,0-.42,0-3.38-3.13-6.13-7-6.13a7.7,7.7,0,0,0-3.39.78,9,9,0,0,0-7.18-3.64A9.48,9.48,0,0,0,17.47,20c-4.29,1.1-7.25,4.54-7.25,8.47,0,4.87,4.54,8.84,10.12,8.84a11.24,11.24,0,0,0,5.44-1.38,7.06,7.06,0,0,0,4.78,2.53,8.72,8.72,0,0,0,.9,0,8.05,8.05,0,0,0,1.63-.17A7.29,7.29,0,0,0,36,37a11.56,11.56,0,0,0,3.55.56c5.59,0,10.13-4,10.13-8.84A8.82,8.82,0,0,0,44.19,20.9Z"/><path class="cls-2" d="M29.65,25c0-.11,0-.21,0-.32,0-2.58-2.69-4.69-6-4.69a7.38,7.38,0,0,0-2.93.6,8.11,8.11,0,0,0-6.2-2.79,7.87,7.87,0,0,0-7.95,6.51c-3.7.85-6.26,3.48-6.26,6.49,0,3.73,3.92,6.76,8.74,6.76a10.52,10.52,0,0,0,4.69-1.06,6.39,6.39,0,0,0,4.13,1.94,6.68,6.68,0,0,0,.78,0,7.32,7.32,0,0,0,1.41-.13,6.57,6.57,0,0,0,2.5-1,11.26,11.26,0,0,0,3.07.42c4.81,0,8.73-3,8.73-6.76C34.38,28.51,32.54,26.19,29.65,25Z"/></svg>