<svg id="Type" xmlns="http://www.w3.org/2000/svg" viewBox="0 0 2117.11 1787.37"><defs><style>.cls-1{fill:#ccc;transition: fill .4s ease;}</style></defs><g id="CA_BC"><polygon class="cls-1" points="92.65 1353.63 92.65 1365.84 91.31 1369.24 90.65 1380.09 93.98 1387.56 85.31 1392.99 76.65 1386.88 68.65 1376.7 63.98 1372.63 59.98 1366.52 56.65 1359.74 58.65 1349.56 55.98 1344.81 47.31 1351.6 45.31 1336.67 45.98 1330.56 45.31 1320.38 35.31 1317.67 34.65 1310.88 39.98 1301.38 39.31 1291.2 31.98 1289.85 29.31 1276.27 18.65 1275.6 19.31 1265.42 24.65 1259.99 31.31 1256.6 20.65 1254.56 20.65 1243.7 21.31 1237.6 31.31 1236.24 37.98 1244.38 43.31 1253.2 54.65 1269.49 74.65 1291.88 76.65 1300.02 75.98 1334.63 92.65 1353.63"/><path class="cls-1" d="M23,1029.71H18l-7.33,5.43L7.33,1043l-2.66,2.37-1.34,5.77L4,1055.5l1.33,5.09L3,1065l.33,10.18,5,1.36,7,.33,3.67-5.09,1-3.73,4.33-2,5.67-6.45s3.33-5.09,4.67-4.75,7.33-2.37,7.33-2.37,0-5.09-1-5.09-9.67-.34-9.67-.34l-5.66,9.84-8-.68-.34-3.73,6.34-1.36,3-3.73L24,1038.88l-.67-6.11Z"/><path class="cls-1" d="M16.67,1080.61l-6-.68-5.34-2-4.66,2v6.78l.66,7.13L4,1099.27H7l2.33-7.81s1.67-2.37,3.34-2.37,5.33-2.72,5.33-2.72Z"/><polygon class="cls-1" points="6.33 1100.62 2.67 1101.64 0 1106.39 0 1112.84 0.67 1118.61 1.67 1124.03 2.33 1129.46 6 1132.18 11.33 1131.84 10.67 1127.77 7.33 1117.93 7 1108.09 6.33 1100.62"/><path class="cls-1" d="M336.06,1423.26l2-12a2.9,2.9,0,0,1,.27-.85l5.94-11.88,3.67-9.17-1.85-14.82-5.71-13.31-9.8-13.73a3.29,3.29,0,0,1-.37-.69l-6-16-.18-.73-1.9-17.1-9.42-11.31-.38-.57-5.85-11.72-7.81-9.75a3,3,0,0,1-.47-2.9l3-8.31-9.36-3.9a3,3,0,0,1-1.24-4.57l5.29-7.06-1.65-16.56-9.74-1.62a3,3,0,0,1-2.5-3V1223l-7.13-7.13a3,3,0,0,1-.86-2.39l2-22a3,3,0,0,1,.26-1L394.82,929.75c-106-45.78-214.35-108.46-338.12-196l-2.51,8.84,2.69,8.09.63,12.8-6.84,12.77-4.1,4.7.66,6.74,6.12,0,8.15,3.4,10.2,0,7.5-6,5.46-3.34,17,1.4,6.78,4.74.67,5.39L105,801.36l-1.4,10.1.63,14.15,2,14.82-.77,26.27-4.17,24.9-1.43,18.86-4.79,8.74L90.92,936l.64,12.8,4.72,9.45,8.12,14.17,0,9.43L115.88,994l-9.55,8.72-9.57,12.09-7.52,12.09-6.82,4L79,1042.4,68.1,1043l-6.84,10.08.66,6.07-3.43,8.07-1.4,9.42,4.73,10.79,2,8.09,5.42,6.76,8.86-4.68L76,1107.72H72l-4.77,3.35,0,6.73,1,6.44,0,10.1-1.39,10.1-8.87,8-.7,6.06,1.33,7.41,12.24,0,10.89-2-1.74,10.4-9.55,2.7-10.88.63-6.14,4-2.07,8.75,4.07,2-2.73,5.38-4.78,4.7-6.15,8.06L43,1222.82l6.1,8.78,4.76-2,4.76,2,7.46,6.76,0,8.09-2.08,10.76,6.8,2,1.34,5.39,12.23,3.41,1.33,6.75,6.12,2.71-8.89,12.77,5.41,8.1,2.7,7.42,10.19,2.73-4.1,6.72,2,12.8,7.49,0,2.73-4.7,2,3.37-2.09,13.47,3.38,8.09-7.5,3.34s1.93,3.06,2,4c72.33,29.09,151.72,60.92,238.54,85.35l-9.24-15.83A3,3,0,0,1,336.06,1423.26Z"/></g><polygon id="CA_PE" class="cls-1" points="1885 1437.76 1872 1442.76 1855 1450.76 1842 1452.76 1829 1450.76 1826 1443.76 1822 1439.76 1817 1446.76 1820 1455.76 1828 1460.76 1839 1462.76 1842 1466.76 1851 1464.76 1861 1465.76 1865 1461.76 1869 1466.76 1881 1466.76 1884 1460.76 1878 1458.76 1882 1450.76 1881 1445.76 1885 1437.76"/><g id="CA_NL"><polygon class="cls-1" points="1960.11 1239.24 1960.11 1217.24 1978.11 1211.24 1978.11 1233.24 1988.11 1235.24 1996.11 1227.24 2010.11 1229.24 2016.11 1217.24 2030.11 1211.24 2046.11 1211.24 2040.11 1233.24 2052.11 1235.24 2056.11 1243.24 2066.11 1237.24 2072.11 1225.24 2072.11 1245.24 2062.11 1255.24 2071.11 1260.24 2077.11 1271.24 2085.11 1269.24 2082.11 1258.24 2083.11 1244.24 2092.11 1238.24 2091.11 1249.24 2092.11 1262.24 2096.11 1270.24 2101.11 1264.24 2099.11 1255.24 2101.11 1249.24 2109.11 1258.24 2111.11 1270.24 2117.11 1282.24 2117.11 1293.24 2113.11 1307.24 2106.11 1306.24 2100.11 1297.24 2101.11 1293.24 2097.11 1293.24 2095.11 1302.24 2096.11 1308.24 2090.11 1309.24 2085.11 1303.24 2088.11 1291.24 2070.11 1277.24 2066.11 1272.24 2064.11 1278.24 2067.11 1287.24 2065.11 1295.24 2060.11 1304.24 2061.11 1316.24 2059.11 1325.24 2051.11 1335.24 2042.11 1336.24 2039.11 1330.24 2047.11 1324.24 2052.11 1310.24 2054.11 1296.24 2054.11 1292.24 2044.11 1299.24 2042.11 1309.24 2031.11 1315.24 2029.11 1305.24 2024.11 1305.24 2015.11 1313.24 2011.11 1323.24 1996.11 1331.24 1988.11 1329.24 1980.11 1336.24 1965.11 1342.24 1959.11 1351.24 1952.11 1357.24 1941.11 1357.24 1936.11 1349.24 1941.11 1334.24 1942.11 1326.24 1942.11 1313.24 1937.11 1321.24 1924.11 1324.24 1925.11 1312.24 1933.11 1311.24 1935.11 1301.24 1936.11 1289.24 1941.11 1283.24 1934.11 1279.24 1931.11 1271.24 1934.11 1252.24 1931.11 1237.24 1923.11 1221.24 1926.11 1202.24 1926.11 1187.24 1932.11 1166.24 1933.11 1160.24 1945.11 1153.24 1947.11 1159.24 1941.11 1166.24 1939.11 1175.24 1948.11 1168.24 1949.11 1174.24 1950.11 1182.24 1946.11 1188.24 1947.11 1197.24 1950.11 1202.24 1950.11 1209.24 1951.11 1218.24 1952.11 1233.24 1959.11 1247.24 1960.11 1239.24"/><path class="cls-1" d="M1569.94,935.86a3,3,0,0,1,1.16,2.37V945l8.27,3.86a2.8,2.8,0,0,1,1.05.82l6,7.33a3.18,3.18,0,0,1,.45.75l3.33,8a3,3,0,0,1-2.09,4.08l-6.34,1.47v.94l4.84,2,8.75-4.66a3,3,0,0,1,3.53.52l.93.93,2.58-3.32a3,3,0,0,1,2.37-1.15h4.66a3,3,0,0,1,2.58,4.54l-3.19,5.31,2.68,5.9a2.9,2.9,0,0,1,.26,1l.67,9.34a3.07,3.07,0,0,1-.1,1l-1.75,6.42,2.08,5.7,4.09,3.59,6.44,1,3.63-3.1a3,3,0,0,1,4.44.61l5.34,8a3.08,3.08,0,0,1,.5,1.67v9.22l1.29,16.11,3.07,8,5.83,9.07a3.07,3.07,0,0,1,.46,2l-.53,4.17,2.66,3.71,0,.08,3.22,4.82,4.61.46,5.39-1.79a3,3,0,0,1,3.74,1.73l2.67,6.67a3,3,0,0,1,0,2.11l-3.46,9.79,2.92,3.74,8.13,1.17a3,3,0,0,1,2.45,2.1l4,13.34a3.09,3.09,0,0,1,.13.86v13.33a3,3,0,0,1-.13.89l-2.67,8.66a3,3,0,0,1-3.5,2l-8.21-1.76-3.67,2.1a3,3,0,0,1-1.79.38l-6.66-.67a2.92,2.92,0,0,1-1.55-.61l-4.51-3.51-3.31,1.66v2.81a3,3,0,0,1-.88,2.13l-4.67,4.66a3,3,0,0,1-2.65.83l-7.34-1.33-.41-.11-6-2-.56-.25-7.45-4.35-5.41-.6-2.79-.35-.24.86,3.23,4.85.29.55,2.67,6.67a3,3,0,0,1-3.06,4.1l-5.94-.54-.14.14,2.37,4.74,2,4a3,3,0,0,1-.46,3.35l-5.34,5.94-.53,5.29,1.22,7.34,3,8.52,6.21,6.83,5.64,5.65,7.29-.57a3,3,0,0,1,2.25.78l7.33,6.66a3,3,0,0,1,1,2l.67,7.33a3.06,3.06,0,0,1-.35,1.71l-3.14,5.74,2.44,3.66,7.2,2.54.58-2.6,1.32-7.93a3,3,0,0,1,2.69-2.5l7.33-.67a3,3,0,0,1,3.23,2.5l1.34,8,0,.49v3.9l3.63,6.67.24.57,1.67,5.55,1.44.87,9-1.2.23,0,12-.67a3,3,0,0,1,1.7.43l3.34,2,.58.45,2.64,2.64,7.46,1.14h11l4-.36-.81-5.29-2.6-8.46,0-.16-2-8,0-.27-1.32-8.56-2.64-11.21a3,3,0,0,1,.15-1.83l4.67-11.33a3,3,0,0,1,2.77-1.86h4a3,3,0,0,1,1.66.51l4,2.66a3,3,0,0,1,.14,4.9l-4.48,3.36-1.51,6,2.26,5.66,1.41,2.82,6.21,2.25a3,3,0,0,1,1.85,2l.94,3.14,152.09-82.25a3,3,0,0,1,4,1.11l13.44,22.6,8.56-3.6,2.76-7.8,3.83-18,2.11-16.62-2-6.45-6.49-3.08-7.52-.37-5.46-4.09-3-9.17-5.44-10.54-8.18-6.47-7.51-3.76-10.94-.72-6.85,2.35-2.08,9.15-2.08,6.1-3.42.67-2-7.47-.32-8.15-11.6-5.81-8.9,2-10.74,9.31,3,5.57-4.11,9.58-8.18,5.53,1,5.56-7.71,15.63-9.73,11.08-3-14.16,6.68-13.61,11.26-11.58,2.6-14.14,5.12-5.53,2.06-5.05,4.09-1.5,6.14-6.54-3.54-8.1-8.16-1-10.71-1.55-6.66,9.07-13.78-.56-2.54-3.55-6.63,1-1.54,2-10.2,1-5.61-2-8.19,7-5.6-1.54-1.49-11.11-6.61-6.09-23,5-7.62-8.11-17.86-1.08-1-7.58L1688,1037l-2.52-8.6,3.1-12.11-14.79-1.57-5.59-4.57-6.13,2.5-3.56-4,4.09-2.51,2.07-6.06-8.65-9.63-7.67,5.53-3-9.61-8.15-2.55-6.61-6.59-10.23,8-2.54-3.54,4.12-9.58-3-4.56-9.69-1-.48-7.07-6.62-4.07-7.66,1-2-6.58-7.14-2.05-11.7-9.13-7.63-7.61L1564.8,923l.26,9.05Z"/></g><path id="CA_YT" class="cls-1" d="M330,871.87a2.9,2.9,0,0,1,.23-1.27l4.65-11.15L333.61,853l-17.3,1.73a3,3,0,0,1-2.25-.71l-6.57-5.64L294,843.58a3,3,0,0,1-2-3.25l2-14L296,807.09l-6.8-20.39a3,3,0,0,1,0-1.79l4.11-14-9-2.25a3,3,0,0,1-2.16-2.08l-2-7a3,3,0,0,1,.24-2.24L288,743.1,287,729a3,3,0,0,1,2.35-3.12l6.15-1.38-3.45-18.14a3,3,0,0,1,1.6-3.24L300,699.9V686.44l2-19,0-.13,2.48-16.56H294a3,3,0,0,1-2.85-4L295,635.19l1-18.6.09-.57,2-8a3,3,0,0,1,2.91-2.27h5.13l6.27-3.91,3.7-13.86a3,3,0,0,1,2-2.1l6.93-2.08-1.26-3.37-10.3-1.72a3,3,0,0,1-2.47-2.5l-2-13a3,3,0,0,1,.49-2.14l16.24-23.89-1.49-6L304.8,509.77a3,3,0,0,1-.29-3.66l37.33-56.85-.91-6-4.06-6.75,2.76-10.1-3.39-5.4-1.33-8.76,0-6.06-4.73-8.1-4.73-8.1-8.14-8.79L34.65,687.28,36,694.69l5.43,1.37,5.43,4.06,4.74,7.42,6.79.7,3.4,2.71-2.07,6.73-2.06,5.38v4c98.85,70,187.67,124.16,273.21,166.46Z"/><path id="CA_AB" class="cls-1" d="M400.33,932.12,282,1192.53l-1.83,20.09,7,7a3,3,0,0,1,.88,2.12v7.46l9.49,1.58a3,3,0,0,1,2.49,2.66l2,20a3,3,0,0,1-.58,2.1l-3.69,4.92,8.44,3.51a3,3,0,0,1,1.67,3.8l-3.43,9.42,6.95,8.68.34.53,5.84,11.69,9.78,11.73a3.11,3.11,0,0,1,.68,1.59l2,17.63,5.73,15.28,9.77,13.68.32.56,6,14a2.86,2.86,0,0,1,.22.81l2,16a2.94,2.94,0,0,1-.19,1.49l-4,10-.1.22-5.8,11.6-1.75,10.49L354,1443.41q50.25,14,103.81,26.23L573.33,992.25A1329.72,1329.72,0,0,1,400.33,932.12Z"/><path id="CA_SK" class="cls-1" d="M579.12,993.81,463.62,1471c73.72,16.63,152.17,31.55,235.54,41.73l46.54-483.83C687.79,1019.57,632.8,1008.21,579.12,993.81Z"/><path id="CA_NT" class="cls-1" d="M329.24,527.73a3.11,3.11,0,0,1,.69,1.29l2,8a3,3,0,0,1-.43,2.42l-16.34,24,1.49,9.69,9.86,1.64a3,3,0,0,1,2.32,1.91l3,8a3,3,0,0,1-.12,2.39,3,3,0,0,1-1.83,1.53l-8.4,2.52-3.57,13.39a3,3,0,0,1-1.3,1.77l-8,5a3.08,3.08,0,0,1-1.59.45h-3.66L302,617.2l-1,18.71a2.69,2.69,0,0,1-.15.79l-2.68,8H308a3,3,0,0,1,3,3.45l-3,19.95-2,18.77v14.83a3,3,0,0,1-1.66,2.69l-6,3L302,726.19a3,3,0,0,1-2.29,3.49l-6.49,1.44.83,12.43a3,3,0,0,1-.35,1.61l-7.43,13.93,1.19,4.17,10.32,2.58a3,3,0,0,1,1.88,1.42,3.08,3.08,0,0,1,.28,2.34l-4.74,16.1,6.7,20.1a3,3,0,0,1,.14,1.25l-2,20v.13l-1.66,11.57,11.7,4.18a3.15,3.15,0,0,1,.94.54l6,5.17,18.73-1.87a3,3,0,0,1,3.24,2.39l2,10a3,3,0,0,1-.17,1.75L336,872.3l.93,24.22q31,15.15,61.51,28.28a3,3,0,0,1,3,1.31,1321.69,1321.69,0,0,0,174.79,60.74,2.92,2.92,0,0,1,1.41,0,3,3,0,0,1,1.37.77c53.85,14.5,109,25.91,167.2,35.25L763.81,849.7,645.9,802.54a3,3,0,0,1-1.6-1.51L628.71,767.9l-31.16-17.53a3,3,0,0,1-1.16-1.16l-82-148a3,3,0,0,1-.07-2.77l30.31-62.22L542,534.88l-15,10L514,542.86l.71-8.08,5.46-4.7,3.44-11.43,7.51-8.73-2-4.05-9.55,8L508,520.61l-7.53,12.1-6.11-3.4.89-59.94-6.8,0-.72,10.77-7.49,2.67-10.23,8-6.1-6.08L451,483.35l-17.71,5.33-3.37-6.07-24.5,1.25-16.34,5.33L385,481.1l12.93-3.32,19.74-3.3,11.56,1.39,17,.73,18.38-2v-5.39l-10.88-.71L449,463.14l-8.86,3.34-17-1.41-11.54-4.76L404.78,467l-10.19-3.4-9.54,4-14.29,2-8.15-3.39-4.77,2.67-8.12-10.8-6.81,1.32-.07-.73-32,48.8Z"/><path id="CA_MB" class="cls-1" d="M898.78,1363.75l157.4-175.7-9.94-.35-12.22-5.1-8.14-7.1-5.6-3-14.3,3-10.21,2.49-5.12,5-9.69.47-6.1-6.08,3.07-4.54-3.51-17.69-3-16.68-7.09-14.17-2.51-12.64-10.21,3-5.08-5.57-7.66.47-3.58,4-4.08-.52-1-8.08-5.59-6.09,3.11-10.59.1-30.31,3.58-6.26c-63.75-6-123.18-13-179.77-21.89l-46.52,483.62c60.45,7.22,123.47,11.47,189.13,14.35L898,1365.68A2.94,2.94,0,0,1,898.78,1363.75Z"/><path id="CA_NS" class="cls-1" d="M1957.25,1425l-2-3.4-4.79,0-7.53,2-4.78-1.37-4.8,2.35-1-9.16,0-7.47-2-3.73-6.81-6.48-5.13-1.71-3.08,3,.66,5.43-.73,12.21-2.77,11.19-1.08,13.91,3,12.56s6.81,7.83,7.84,7.83,0,3.73,0,3.73l-6.84.32-1.72,4.06-3.42-2.38-5.11-3.75-2.74,1-2.07,6.1-4.12,4.06-4.46,5.41-8.2-2.4-8.55.31-3.44,6.77-4.45-.36,0-4.41-5.81-1.38-5.49,4.4-1.54-.43h0l-11.75.65-3.52.78-.56,12.37a3.59,3.59,0,0,1-.14.74l-.66,4.13-3.09,3.38-3.1,7.12,1,6.45,3.75.35,4.13-5.08,7.88-4.38,6.85-3s10.61-3,12-3,3.07,2.73,3.07,2.73l-4.79,2.36-6.17,3.37-4.46,4.73-2.08,6.44-4.1.32,2.07-4.74-1.7-3.06-5.14,2-6.86,7.1-13.06,17.25-9.28,15.92-2.77,8.81,3,6.46,0,9.83,6.46,10.55,6.47,6.13,8.55,1.38,5.11,4.43,5.48-1.33,4.46-4.74,2.76-7.45,6.86-6.42,1.75-11.87,2.41-3.39,0-5.42,4.14-10.17-2.7-9.17,4.8-3.37,11.62.38,2.41-5.42.37-7.46,8.91-5.74,7.89-6.76,9.26-8.78,2.43-8.48,11-8.78,12.35-11.83,5.49-5.75-3.75-2.39-7.87,1-6.84,0-.32-4.75,3.43-2,8.21-4,6.52-4.38,7.2-7.1,5.49-4,.37-8.82,5.5-5.75Z"/><path id="CA_ON" class="cls-1" d="M1528.05,1601.85l-15.56,3.89-15.71,7.85a3,3,0,0,1-1.34.32h-21a3,3,0,0,1-2.22-1l-9.11-10h-7.67a3,3,0,0,1-1.49-.39l-13.52-7.73-18.53-2.92-22-4a3,3,0,0,1-1.62-.87l-25-26a2.84,2.84,0,0,1-.7-1.18l-5-16-.06-.2-36.37-153.66-3,6.4-9.7,0-4.06-4.06-9.68-3.57-2.53-6.57L1289,1368.92l-9.17-2.56-4.57-8.09-26.44-23.84-1-21.73-10.62-24.79.63-35.36-3-8.09-6.12-.53-9.7,2-15.31-.05-15.29-2.58-8.68,3-25-1.61-10.18-7.11-6.11-4.57-8.16,1-8.16-2.55-5.59-6.08-17.86-.07-7.63-4.57-1.5-9.1-9.66-8.63-7.62-8.1-8.92-5.79L904,1366.93l-3.18,136.76,11.21-3.61,6.16-2.7-6.12-9.52,3.44-4.74,10.87,19,4.08,6.8-3.42,2-10.26-1.4v3.4l6.82,4.09,6.15,3.42-8.91,4-4.79,2.69-3.44,3.38,4.76,8.84,15.72,4.13,16.41.06,16.41.06,11.61,6.15,4.76,7.48,6.16-1.33s6.15.7,8.2.7,6.14,5.45,6.14,5.45l9.57,0,9.59-2.68s5.48-2.69,7.53-3.37,4.78,2.74,4.78,2.74l8.2,2.74,14.35,3.44,10.25,1.4,7.55-16.77,3.44-6.09,2.07-4.75,8.2,0,2.07-4.74,2.08-6.78,4.1-1.34,5.46,6.13,3.44-6.77.7-6.11,4.8-2,2.71,8.15,5.49-6.08,5.45,3.75,9.57,2.74,11.29-2.67,9.23.71,5.45,4.77.32,7.81,8.87,5.46,8.85,11.57,4.44,1.37,10.61-1.66s8.55.71,9.57,1,5.11,4.09,5.11,4.09l.32,8.15,9.2,8.85-.37,6.79,0,5.77,7.85,4.09-.72,11.2,3.75,2.73,8.2,2.4,7.17,3.08s16.41,2.09,17.43,2.1,21.54,1.1,21.54,1.1l24.62,1.78,18.79,3.46,7.18-1,9.93-2.34,7.17,2.74,8.52,7.84,17.38,16.35,9.19,12.24-4.47,9.15,3,6.12-3.09,5.07-6.5,1.34-8.88-3.43-8.54-3.08-11.6-9.2-8.16-10.89-7.85-4.1-2.75,1.68,2,6.46,8.18,8.85s4.41,9.85,4.41,10.87-6.21,14.23-6.21,14.23l-3.12,11.86,4,20.37-1.76,15.26-13,9.8-2.43,10.17-1.06,10.85-4.13,6.43-6.16,2.69-5.81,0-1.39,4.75,1.7,5.09,10.93,1.4,9.92-.3,6.18-5.75,11.65-8.44,10.29-10.14s9.61-8.11,10.63-9.12,13,.72,13,.72l13.33,1.75,10.95-2.34-5.46-4.43-5.11-3.41,2.74-3.72,7.53-1.33s10.26-.64,11.29-1.32,8.22-3,8.22-3,4.1-.66,8.55-1.67,6.5,0,6.5,0l.36-6.1-6.15,0s0-3.39,0-4.41a29.14,29.14,0,0,0-1-4.42l-5.47-1-6.85,4.38-6.85,2.35-6.81-6.81,1.39-6.78,11.33-11.49,13.37-9.79s13.35-4,14.37-4,15.4-3,15.4-3l3.78-4.4,2.72,5.1,9.57.72,9.24-1.33,4.8-5.07-2.37-6.12.36-5.76,7.19-2,3.43-2.7,5.82-2s6.5,0,7.86-.65,4.13-5.75,4.13-5.75l6.19-10.83,7.21-6.76,4.81-6.43,5.84-8.46,6.56-1.48-5.57-19.48Z"/><path id="CA_NB" class="cls-1" d="M1833.11,1482.1a3,3,0,0,1,2.35-2.79l6-1.33.49-.07,8.32-.46.12-.26-1-2.72-6.51,1.33-13-1.4-11.62-.38-7.83-9.87-8.86-7.83-1.35-5.44-3.08-.35-8.55,1,2.42-9.15,2.08-7.46-2.35-10.87-4.42-7.48-4.45-.35-5.15,5.75-9.6,8.44H1762l-4.43-4.09-5.81-2.06-4.65.56-12.79,4.74-7.27,6.06-3.76,5.64a3,3,0,0,1-2.75,1.32l-7.87-.65h-7.88l-8.23,3.83-1.46,4.41-.65,10.28v.14l-.67,6a3,3,0,0,1-.73,1.66l-12.3,13.9,1.06.21,7.88-3,6.17-4.73,10.94.38,8.88,4.1,6.11,13.26,10.84,27.52,6.44,15.63,6.49,2.4,7.19-1,2.36,7.81,4.08,6.8,7.51,4.44,4.45-.66,2.07-4.41,8.54,1.73,3.08-3,7.53-.65,5.85-10.5,2.75-2.37,8.21-2,5.49-6.09,0-6.44,12.7-11.83,4.47-6.09.82-5.59a3,3,0,0,1-.21-1.23Z"/><g id="CA_QC"><polygon class="cls-1" points="1818.67 1316.28 1800.67 1316.28 1796.17 1319.84 1776.17 1319.84 1765.17 1324.42 1756.17 1328.49 1755.67 1334.09 1773.17 1335.11 1782.17 1339.69 1804.17 1339.69 1820.67 1332.57 1836.67 1332.57 1840.67 1327.99 1840.17 1321.37 1823.67 1319.33 1818.67 1316.28"/><path id="QC" class="cls-1" d="M1688.45,1460l.66-10.58.15-.77,2-6a3,3,0,0,1,1.58-1.77l10-4.66a2.94,2.94,0,0,1,1.27-.28H1713l6.24.52,3-4.53a2.91,2.91,0,0,1,.57-.64l8-6.67a3.37,3.37,0,0,1,.88-.51l16.82-6.23,4.94-3.11,15.39-1,17.88-27.42-.3-11.88-4.77-7.14-7.85-3.42-8.88-1.39-9.24,0-10.94,1.32-9.94,4.71-13.72,11.15-18.86,14.86-14.07,14.19-15.45,19-10.66,16.58-10.37,29.82-6.9,18.3-6.89,15.24-2.75,2.71-7.2,5.74-10,12.51-3.76,1-6.85,2.35-8.24,9.47L1587.48,1557l-10,15.57-2.77,9.49-3.13,13.56-5.83,6.77-4.45,1.34-2.39-.69,1.72-2.71,4.46-6.09,4.13-6.77.38-10.51,6.2-12.87,15.46-20,15.78-16.56,10.63-6.41,10.3-13.54,7.21-7.43,2.1-13.57,7.91-12.86,0-13.23L1647,1450l3.12-12.21,2.41-2.7,1.07-12.89,5.85-11.85,10-15.91,10.28-6.75,6.85-4.39,5.61-39.33,28.1-17.88,71.57-29.26,19.87-7.73,12.3,0,5.84-5.75,14.4-11.48,20.9-12.82,2.08-7.79L1868,1237l3.79-7.79,2.13-23.4,11-7.09,7.21-10.15,2.08-6.1,5.5-5.42-12-20.18-152.8,82.63a3,3,0,0,1-2.57.13,3,3,0,0,1-1.73-1.91l-1.57-5.22-5.91-2.15a3.05,3.05,0,0,1-1.66-1.48L1720,1226l1.06,7,2,7.79,2.65,8.59.1.43,1.33,8.66a3,3,0,0,1-2.7,3.45l-7.33.66-.27,0h-11.33l-.46,0-8.67-1.33a3,3,0,0,1-1.66-.84l-3.08-3.08-2.22-1.33-11,.6-9.89,1.32a3,3,0,0,1-1.94-.4l-3.33-2a3,3,0,0,1-1.34-1.71l-1.9-6.37-3.85-7.05a2.91,2.91,0,0,1-.37-1.44v-4.42l-.84-5-2.25.21-1,5.71,0,.16-1.33,6a3,3,0,0,1-3.93,2.18l-11.34-4a3,3,0,0,1-1.49-1.17l-4-6a3,3,0,0,1-.14-3.1l3.56-6.53-.48-5.26-5.51-5-7.37.56a3,3,0,0,1-2.36-.86l-6.66-6.67-.1-.11-6.67-7.33a2.8,2.8,0,0,1-.6-1l-3.34-9.33-.13-.52-1.33-8a2.61,2.61,0,0,1,0-.79l.67-6.66a3,3,0,0,1,.75-1.72l4.63-5.14-1.08-2.17-3.33-6.67a3,3,0,0,1,.56-3.46l2.66-2.67a3,3,0,0,1,2.4-.86l2.46.22-.74-1.83-3.82-5.74a3,3,0,0,1-.39-2.49l1.33-4.67a3,3,0,0,1,3.26-2.15l5.29.66,6,.67a2.89,2.89,0,0,1,1.18.39l7.73,4.51,5.51,1.83,5.57,1,2.68-2.68v-3.42a3,3,0,0,1,1.66-2.69l6.66-3.33a3,3,0,0,1,3.19.31l5.31,4.14,4.85.48,3.84-2.19a3,3,0,0,1,2.12-.32l6.64,1.42,1.73-5.6v-12.45l-3.32-11.08-7.44-1.06a3,3,0,0,1-1.94-1.12l-4.67-6a3,3,0,0,1-.46-2.85l3.62-10.26-1.19-3-3.32,1.11a3.11,3.11,0,0,1-1.25.14l-6.66-.67a3,3,0,0,1-2.2-1.32l-4-6-3.29-4.61a2.93,2.93,0,0,1-.53-2.11l.53-4.26-5.41-8.42-.28-.54-3.34-8.67a3.41,3.41,0,0,1-.19-.84l-1.33-16.66v-8.67l-2.95-4.42-2.09,1.79a3,3,0,0,1-2.41.69l-8.67-1.33a3,3,0,0,1-1.52-.71l-5.33-4.67a2.94,2.94,0,0,1-.85-1.23l-2.66-7.33a3.06,3.06,0,0,1-.08-1.82l1.87-6.84-.6-8.28-3.1-6.85a2.44,2.44,0,0,1-.1-.24l-.14.18a3,3,0,0,1-2.18,1.15,3,3,0,0,1-2.31-.87l-1.76-1.76-8,4.28a3,3,0,0,1-2.56.13l-8-3.34a3,3,0,0,1-1.85-2.77V968.9a3,3,0,0,1,2.32-2.92l5.21-1.21-1.8-4.31-5.29-6.46-9.38-4.38a3,3,0,0,1-1.73-2.72v-7.2l-4.84-3.77a3,3,0,0,1-1.16-2.28l-.3-10.72-1,1.42L1555.24,937s-.59,23.23-.09,24.75,3,21.73,3,21.73L1556,998.6l-5.61,1-2.07,7.57-7.19,15.13-7.17,7-17.83-7.64-13.75-6.62-11.25,6-5.64,8.56-7.66,3.51-2.53-6.57,10.77-16.13-5.58-8.61-6.13,2-3-16.18-7.11-7.09.54-8.59-8.13-10.64-3.52-13.65-8.66-3.57-4.57-6.08-10.22,5-18.37,2.46-7.12-7.1-1-6.57-4.57-6.59-11.2-5.09-8.67-.53-3.55-5.07-18.85-10.68-7.14,0-6.15,7.05L1332.36,921,1316,923l-11.73-1.05L1290,918.83l-15.31,2.47-7.7,11.59v5.05l4.57,6.58,10.65,15.7,2.52,9.61,0,8.59-2.59,10.09v5l5.08,3.56,4.57,7.09,3.52,15.16,6.12,1,3,6.07-3.6,7.06-3.09,10.09-2.63,20.7-6.15,8.06,4.55,13.15,9.16,6.6,14.78,4.1,11.19,8.63,12.21,11.66,14.2,22.28,4,25.78-3.67,29.28-12.33,22.19-19,22.66-17.89,11-8.69,3.5,3,4.56,9.16,7.11,11.7,11.15,2,9.1s4,11.64,4,13.15,7.1,11.14,7.1,11.14l6.59,14.17-.54,7.07,5.6,5.58s4.56,8.1,4.55,9.61-1.56,9.59-1.56,9.59l-1.58,14.14,5.07,9.11,0,6.57-6.11-1-4.57-6.08-6.12-1.54-1.36,1.34,38.83,164.1,4.76,15.23,23.84,24.79,21,3.81,19,3a3.11,3.11,0,0,1,1,.36l13.31,7.61h8.2a3,3,0,0,1,2.22,1l9.11,10h19l15.37-7.69.61-.22,16-4,.24,0,12-2a3,3,0,0,1,3.37,2.13l6.35,22.23,2.69-.73,14.71-3.34,15.4-3.34,18.83-3.32,21.56-4.67,14-3.68,4.81-5.41,3.44-7.79,5.49-3.71,6.85-3.37,2.79-14.92,3.09-4.74s2.43-9.83,2.44-11.53-4.08-9.17-4.08-9.17l-2.7-7.14,0-7.46,3.81-14.24,1.42-12.88L1665,1484s5.15-6.09,6.86-6.42a7,7,0,0,1,3.76.69l.14.41,12.12-13.7Z"/></g><g id="CA_NU"><polygon class="cls-1" points="1160 919.11 1153 931.32 1151 944.55 1157 954.73 1163 948.63 1171 948.63 1185 930.3 1186 911.98 1169 919.11 1164 924.2 1160 919.11"/><path class="cls-1" d="M1240,929.29c-3,0-14,3.05-14,3.05l-2,13.23,12,19.34,6-11.19Z"/><polygon class="cls-1" points="1266 879.41 1254 876.36 1245 877.38 1245 888.57 1258 892.64 1266 888.57 1266 879.41"/><polygon class="cls-1" points="1281 868.22 1281 878.39 1265 869.23 1266 863.13 1281 868.22"/><g id="NU"><polygon class="cls-1" points="757 457.01 749 461.08 752 473.3 749 480.42 744 479.4 738 484.49 729 484.49 727 480.42 735 476.35 726 453.96 718 450.9 708 466.17 697 463.12 700 453.96 710 449.88 711 436.65 700 428.51 687 436.65 674 433.6 666 438.69 661 446.83 652 446.83 646 454.97 638 466.17 628 468.21 628 480.42 635 482.46 635 493.65 667 497.72 667 505.87 628 506.88 632 526.22 649 534.37 660 543.53 678 541.49 689 554.72 701 554.72 703 566.94 683 569.99 665 554.72 623 550.65 618 555.74 620 569.99 624 573.04 629 595.43 648 600.52 656 613.76 657 638.18 686 649.38 702 650.4 714 646.33 725 642.26 749 643.27 759 633.1 765 624.95 770 635.13 776 641.24 787 642.26 790 649.38 784 655.49 797 657.52 802 663.63 831 661.6 832 639.2 816 640.22 816 628.01 821 629.02 832 618.85 836 625.97 851 629.02 852 609.68 835 593.4 824 591.36 805 558.79 811 550.65 811 484.49 820 468.21 828 461.08 825 447.85 811 441.74 799 444.8 807 467.19 801 473.3 797 459.05 788 452.94 779 465.15 780 486.53 776 491.62 777 516.04 769 527.24 767 485.51 757 457.01"/><path class="cls-1" d="M655,344c-5,0-23-4.07-23-4.07l-16-1-1,17.3-56,59-4,9.16L570,456l-7,9.16,8,11.2,9-7.13h9l5,7.13,11-1L610,457l13-8.14h12l13-16.29,16-5.09,15-8.14,14,1,6-24.43-13-16.29-24-7.12-9-12.22Z"/><polygon class="cls-1" points="757 242.25 755 258.53 747 263.62 747 273.8 741 282.96 726 294.15 726 281.94 728 269.73 715 279.91 712 288.05 703 289.07 696 297.21 687 289.07 672 283.98 672 269.73 680 265.66 688 267.69 697 259.55 709 258.53 723 245.3 733 242.25 757 242.25"/><polygon class="cls-1" points="717 296.19 695 310.44 694 317.56 700 319.6 709 316.55 718 304.33 717 296.19"/><polygon class="cls-1" points="818 236.14 802 235.12 787 242.25 782 255.48 792 267.69 806 267.69 807 251.41 817 247.34 818 236.14"/><polygon class="cls-1" points="825 208.66 808 213.75 793 217.82 805 224.94 816 224.94 819 232.07 826 233.09 831 221.89 825 208.66"/><polygon class="cls-1" points="882 196.44 871 196.44 867 201.53 881 231.05 874 230.03 867 236.14 869 243.26 895 246.32 898 251.41 900 260.57 903 270.75 911 270.75 913 230.03 899 212.73 894 209.68 890 217.82 887 210.69 888 202.55 882 196.44"/><polygon class="cls-1" points="855 268.71 850 263.62 849 286.01 853 293.14 858 293.14 855 268.71"/><path class="cls-1" d="M899,545.56l-4,15.27H881l-10-25.45L854,514V503.83l-6-7.12,3-18.33,11,5.09,4,14.25,12-21.37-12-8.14,2-8.15,6,4.07,1-7.12v-7.13l7-3.05,6-5.09L890,457l11-1,12-7.12,7,8.14-7,9.16-1,9.16-9,8.14v7.13l7-5.09,5,10.18-3,14.25,9-6.11s-1,13.23-1,16.29v17.3l-7,4.07-5,6.11Z"/><path class="cls-1" d="M979,450.9l16-4.07,7,9.16-5,12.22-11,9.16V490.6s-6,15.27-10,15.27-20-3.06-20-3.06l2,8.15-3,22.39-10,2-6-14.25-3-23.41L935,458l9-3.06V441.74l10-1,10-3.05Z"/><polygon class="cls-1" points="888 394.92 887 376.6 894 370.49 891 364.39 865 372.53 864 366.42 866 358.28 860 354.21 871 345.05 880 359.3 879 349.12 878 333.85 889 339.96 897 354.21 901 352.17 893 328.76 888 321.64 894 315.53 902 322.65 904 334.87 914 324.69 924 343.01 920 365.4 920 377.62 913 394.92 906 396.96 888 394.92"/><polygon class="cls-1" points="850 369.48 841 370.49 838 381.69 838 389.83 850 389.83 850 369.48"/><polygon class="cls-1" points="896 626.99 889 628.01 883 637.17 882 649.38 872 658.54 876 672.79 883 671.77 902 686.02 914 686.02 930 673.81 921 657.52 912 655.49 907 637.17 896 626.99"/><polygon class="cls-1" points="949 421.38 927 396.96 936 386.78 941 373.55 950 372.53 961 388.81 962 413.24 949 421.38"/><polygon class="cls-1" points="933 308.4 946 311.46 959 317.56 967 330.8 974 330.8 976 325.71 985 325.71 994 336.9 1006 346.06 997 349.12 989 359.3 1001 360.31 1008 363.37 1010 379.65 1017 370.49 1031 372.53 1042 383.73 1047 372.53 1068 358.28 1087 353.19 1098 362.35 1110 363.37 1114 381.69 1120 388.81 1110 396.96 1109 408.15 1100 413.24 1079 407.13 1073 415.28 1051 420.37 1020 419.35 1018 408.15 1011 408.15 1010 419.35 994 415.28 988 418.33 980 409.17 980 395.94 974 392.89 978 361.33 969 352.17 970 340.98 945 347.08 932 321.64 933 308.4"/><polygon class="cls-1" points="853 317.56 869 323.67 861 333.85 853 328.76 853 317.56"/><polygon class="cls-1" points="851 335.89 857 337.92 867 335.89 870 340.98 859 343.01 851 335.89"/><polygon class="cls-1" points="893 266.67 890 274.82 880 270.75 884 261.58 893 266.67"/><polygon class="cls-1" points="966 275.83 946 275.83 939 278.89 939 290.08 956 286.01 962 293.14 966 275.83"/><polygon class="cls-1" points="927 221.89 933 233.09 940 230.03 944 237.16 952 239.19 950 265.66 933 271.76 928 260.57 933 256.5 926 245.3 922 229.01 927 221.89"/><polygon class="cls-1" points="917 161.84 922 162.85 926 181.18 915 181.18 917 161.84"/><polygon class="cls-1" points="988 282.96 994 282.96 1000 297.21 996 301.28 985 294.15 988 282.96"/><polygon class="cls-1" points="1021 336.9 1003 331.81 1006 312.48 1026 293.14 1016 280.92 1016 269.73 1025 269.73 1037 283.98 1055 291.1 1064 278.89 1059 268.71 1052 278.89 1042 273.8 1043 256.5 1039 250.39 1034 257.51 1026 252.42 1022 256.5 1017 248.35 1027 224.94 1034 221.89 1045 220.87 1057 226.98 1065 215.78 1055 215.78 1044 210.69 1041 195.43 1023 171 1023 156.75 1033 156.75 1041 160.82 1054 175.07 1062 184.23 1064 174.05 1056 161.84 1050 154.71 1050 147.59 1066 140.46 1076 119.09 1068 118.07 1055 133.34 1042 139.44 1036 136.39 1036 143.51 1019 140.46 1020 126.21 1012 139.44 1000 129.27 1012 122.14 1025 106.87 1020 104.84 1006 117.05 993 121.12 988 118.07 998 106.87 984 96.69 979 90.59 988 82.44 994 84.48 1003 73.28 1009 80.41 1020 79.39 1022 73.28 1011 71.25 1015 63.11 1016 52.93 1027 61.07 1035 69.21 1039 65.14 1036 46.82 1045 43.77 1043 30.54 1056 26.46 1063 32.57 1068 28.5 1057 17.3 1081 14.25 1086 7.12 1115 0 1109 18.32 1112 23.41 1126 7.12 1134 3.05 1139 13.23 1151 13.23 1154 29.52 1152 46.82 1130 63.11 1130 70.23 1136 66.16 1130 78.37 1130 91.61 1140 80.41 1147 61.07 1158 61.07 1149 81.43 1145 112.98 1136 124.18 1138 132.32 1130 139.44 1131 145.55 1139 141.48 1137 158.78 1131 162.85 1125 158.78 1124 168.96 1108 180.16 1099 187.28 1118 185.25 1119 197.46 1103 199.5 1107 204.59 1125 207.64 1120 221.89 1126 229.01 1126 245.3 1108 251.41 1107 264.64 1111 276.85 1103 277.87 1093 283.98 1083 283.98 1075 273.8 1075 292.12 1084 292.12 1104 285 1105 300.26 1114 293.14 1120 304.33 1116 313.49 1097 335.89 1092 330.8 1092 319.6 1082 321.64 1075 331.81 1068 326.73 1053 330.8 1054 341.99 1040 333.85 1028 328.76 1021 336.9"/><polygon class="cls-1" points="1034 202.55 1022 216.8 1011 242.25 1003 257.51 994 251.41 988 255.48 975 248.35 974 237.16 965 233.09 960 213.75 977 212.73 974 194.41 965 203.57 958 200.51 951 208.66 948 202.55 951 192.37 944 182.19 946 167.94 958 175.07 958 166.93 947 160.82 954 145.55 959 144.53 961 136.39 952 129.27 957 120.11 962 127.23 967 122.14 962 111.96 974 111.96 984 131.3 988 147.59 996 151.66 999 166.93 1006 165.91 1003 149.62 1012 152.68 1011 168.96 1016 173.03 1017 190.34 1025 188.3 1034 202.55"/><path class="cls-1" d="M1098,802.06v17.3l1,20.36-1,23.41v9.16l-14,24.43,1,7.12,22-8.14L1117,911s5,9.16,9,5.09,16-25.45,16-25.45l5-1V878.4l10-10.18v7.12l14,1v7.12l23,4.08,16-12.22V867.2l-7-1-8-6.11-3,8.15-14,1,3-6.1-5-12.22-19-16.28s-10-7.13-15-7.13-12-2-12-2l-5-9.16-7,11.19-5-7.12-7-14.25Z"/><polygon class="cls-1" points="1113 796.97 1120 799 1123 810.2 1118 813.25 1113 796.97"/><polygon class="cls-1" points="1130 790.86 1129 802.06 1148 811.22 1148 804.09 1130 790.86"/><polygon class="cls-1" points="1229 669.74 1225 688.06 1227 710.45 1241 710.45 1252 709.43 1259 701.29 1256 682.97 1256 669.74 1243 663.63 1229 669.74"/><polygon class="cls-1" points="1072 449.76 1052 451.76 1035 462.76 1025 483.76 1021 504.76 1016 522.76 1023 532.76 1020 552.76 1023 565.76 1033 565.76 1044 565.76 1052 577.76 1039 576.76 1032 574.76 1031 585.76 1036 595.76 1044 599.76 1044 606.76 1057 610.76 1062 601.76 1066 601.76 1078 617.76 1094 612.76 1099 616.76 1115 608.76 1127 613.76 1132 617.76 1138 614.76 1146 618.76 1151 611.76 1147 606.76 1166 606.76 1170 607.76 1179 606.76 1180 597.76 1168 588.76 1165 582.76 1176 580.76 1188 590.76 1198 604.76 1206 602.76 1210 610.76 1220 610.76 1228 621.76 1233 625.76 1231 633.76 1225 636.76 1224 643.76 1231 646.76 1240 635.76 1248 633.76 1262 642.76 1274 642.76 1272 651.76 1280 655.76 1286 656.76 1299 670.76 1310 691.76 1303 698.76 1302 720.76 1296 729.76 1290 739.76 1290 750.76 1302 757.76 1309 762.76 1307 773.76 1296 776.76 1287 785.76 1271 787.76 1249 785.76 1248 800.76 1241 805.76 1240 813.76 1250 832.76 1264 838.76 1277 828.76 1285 827.76 1288 815.76 1298 816.76 1306 820.76 1305 808.76 1311 802.76 1317 809.76 1324 808.76 1333 816.76 1344 823.76 1357 833.76 1367 831.76 1373 836.76 1373 845.76 1383 855.76 1394 853.76 1410 856.76 1421 853.76 1426 863.76 1439 864.76 1458 863.76 1481 864.76 1491 866.76 1497 859.76 1493 847.76 1484 847.76 1475 837.76 1441 827.76 1417 805.76 1425 806.76 1438 812.76 1450 811.76 1467 820.76 1490 820.76 1498 826.76 1504 820.76 1498 812.76 1499 805.76 1488 797.76 1489 790.76 1497 795.76 1498 787.76 1482 774.76 1476 766.76 1465 764.76 1471 757.76 1466 754.76 1458 757.76 1454 747.76 1445 747.76 1425 745.76 1418 731.76 1409 725.76 1399 731.76 1399 718.76 1393 714.76 1391 708.76 1404 710.76 1406 703.76 1390 694.76 1400 694.76 1400 686.76 1407 682.76 1412 691.76 1431 698.76 1439 697.76 1446 709.76 1461 720.76 1470 720.76 1480 721.76 1481 709.76 1474 692.76 1478 690.76 1484 676.76 1483 664.76 1472 664.76 1476 658.76 1484 655.76 1483 640.76 1474 633.76 1462 636.76 1449 641.76 1450 628.76 1433 637.76 1429 625.76 1421 621.76 1408 621.76 1409 610.76 1395 622.76 1387 621.76 1372 619.76 1371 610.76 1354 610.76 1331 604.76 1341 602.76 1349 591.76 1341 583.76 1348 580.76 1359 578.76 1354 570.76 1339 571.76 1328 570.76 1336 561.76 1344 553.76 1336 546.76 1326 546.76 1322 555.76 1315 552.76 1306 558.76 1304 552.76 1315 538.76 1313 532.76 1296 532.76 1289 533.76 1283 529.76 1281 523.76 1277 523.76 1272 532.76 1262 536.76 1261 524.76 1268 517.76 1260 511.76 1254 508.76 1248 514.76 1245 525.76 1236 521.76 1232 511.76 1227 505.76 1221 513.76 1213 513.76 1220 502.76 1216 494.76 1207 493.76 1206 485.76 1198 482.76 1190 482.76 1182 480.76 1168 482.76 1165 488.76 1163 499.76 1160 510.76 1155 497.76 1148 494.76 1143 502.76 1140 511.76 1135 516.76 1130 510.76 1135 495.76 1134 482.76 1125 468.76 1121 464.76 1122 456.76 1112 446.76 1094 449.76 1089 458.76 1076 472.76 1072 492.76 1073 507.76 1081 514.76 1077 523.76 1073 534.76 1089 543.76 1093 555.76 1087 568.76 1077 564.76 1083 554.76 1077 548.76 1065 536.76 1060 512.76 1058 492.76 1061 471.76 1066 466.76 1073 454.76 1072 449.76"/><polygon class="cls-1" points="1152 440.76 1142 443.76 1131 440.76 1124 440.76 1125 449.76 1127 460.76 1137 467.76 1137 477.76 1143 486.76 1152 484.76 1157 472.76 1170 469.76 1179 472.76 1186 468.76 1181 456.76 1169 444.76 1152 440.76"/><polygon class="cls-1" points="1192 631.76 1193 640.76 1191 652.76 1182 654.76 1182 641.76 1192 631.76"/><polygon class="cls-1" points="1276 670.76 1270 666.76 1264 669.76 1264 679.76 1272 678.76 1282 680.76 1286 673.76 1276 670.76"/><polygon class="cls-1" points="1251 645.76 1246 648.76 1246 656.76 1252 661.76 1253 649.76 1251 645.76"/><polygon class="cls-1" points="1176 619.76 1165 618.76 1159 618.76 1158 623.76 1166 628.76 1176 619.76"/><polygon class="cls-1" points="1284 1322.76 1275 1320.76 1264 1321.76 1258 1329.76 1269 1336.76 1281 1335.76 1292 1336.76 1299 1334.76 1284 1322.76"/><polygon class="cls-1" points="1300 1164.76 1293 1174.76 1287 1173.76 1288 1181.76 1282 1192.76 1286 1198.76 1291 1190.76 1295 1193.76 1305 1184.76 1303 1171.76 1300 1164.76"/><polygon class="cls-1" points="1527 870.76 1520 865.76 1511 873.76 1520 875.76 1527 882.76 1527 870.76"/><polygon class="cls-1" points="859.02 658.75 854.02 660.75 854.02 671.75 861.02 671.75 863.02 663.75 859.02 658.75"/><polygon class="cls-1" points="835.02 667.75 831.02 667.75 830.02 674.75 840.02 675.75 835.02 667.75"/><polygon class="cls-1" points="1076.02 688.75 1070.02 689.75 1068.02 696.75 1072.02 708.75 1078.02 705.75 1079.02 695.75 1076.02 688.75"/><polygon class="cls-1" points="921.02 477.75 917.02 482.75 920.02 490.75 926.02 485.75 921.02 477.75"/><path class="cls-1" d="M601.23,745.56l31.26,17.58a3.06,3.06,0,0,1,1.24,1.33l15.5,32.94L768.13,845a3,3,0,0,1,1.87,3.08l-17.77,175.76c56.8,9,116.52,16,180.67,22l1.13-10.06,6.15-8.06,4.11-8.07,4.63-10.59-1-9.6,5.12-4.53,7.66-4,1-5.55-5.6-2v-3l7.15-1,6.13-4.52.54-7.58,9.19-3.5,4.11-7.06,5.62-2,1-4L984.85,946l-3.55-5.07,14.79.56,11.74-3,4.62-6.56,2.08-13.12-16.8-8.15-12.24,0-9.17-6.6-14.77-6.12-9.18-1.55-1-4.55,13.78-2,8.14,4.58L987,902.07l9.7,0,7.64,2.55,16.82,4.61,9.73-11.58,4.11-8.07,10.72-2,19.43-13.57,6.68-12.1,6.18-16.65-1-10.61-11.23,2.49-13.77-2.07L1037.8,831l-8.12-12.66-8.15-4.07-8.15-3.56-1-3,9.7-2,16.3,7.13,15.28,7.63,12.22,7.62,9.18-1,11.77-9,5.66-13.12,5.65-11.59-5.09-3.05-7.65-2-4.57-5.58,6.65-5,8.16,1,10.19,3.57,1,4.55,12.24-.46,8.68-2,5.6,3.56,3.58-2.52-9.66-10.64,7.66-.48,6.11,2.55,7.17-6,5.64-9.07,5.11-1.49,1.55-7.58,6.66-8,0-9.6-1-11.12-20.36-16.24,1.05-6.06-5.09-4.56,1-5.56-7.12-4.57,2.9-3.7,13.61,0,3.45-16.15L1153,654.29l-21-9.5-2-8.77-29.92-4.82-10.22,4,2,25.61,6.77,9.45-2.08,11.44h-4.09l-2.09,15.48L1087.54,712,1080,728.79l-2.07,10.77-5.46,2.68,0,10.77-12.92-1.39,0-8.76-3.37-10.11-4.05-8.1-8.1-16.87,5.47-7.39,5.41,8.78,2.75-10.77L1055,685.59l-6.09-9.45-10.17-11.48-7.48,3.34-5.47,6.71,0,6.06-.71,10.1-4.14,16.83-4.77.65-4-23.59-4.71-16.18.71-7.4,6.14-4-6.11-5.42-12.92,0-6.12-.7-4.74-5.4,2.06-6.73.7-5.39-2-6.07,11.56.05L988.55,618l0-6.06-9.49-9.47,0-5.39-.65-10.78-4-14.16-6.77-9.45-5.42-5.41-8.84,0-2-8.09-4.77,0-2.75,8.08-5.46,5.36,3.39,4.73-2.75,8.07-2.71-4-6.13,3.35-3.45,13.46,2,9.43,6.76,10.13-8.17,4.69-2.07,6.72,0,8.76L934.07,638l10.84,10.14,6.81-.65,2.7,6.74,9.51,2.06-1.38,5.38-6.8,0,.65,8.08-2.73,1.34-3.42,8.75,4,8.77,4.1-6.72h4.76l0,6.74-2.08,9.42-6.83,8.73-7.51,9.4-12.93,0-1.38,4.71,3.34,18.87,0,14.14-6.11-2.71-4.07-2-6.8-1.37,0-13.47,4.1-4.7-2-4.72,1.39-10.1,4.79-8.07-10.88.64L908,703.25l-7.45-9.46L891,698.47l-5.45,2,.65,9.43,4.73,9.45,6.8-.65,6.12.7,3.37,9.44-7.5,4.69-9.49-9.47L881.42,716,878.67,724,863,720.6l-8.84-1.38-10.21,2-19-.07-4.75-4.73-8.13-6.77-7.44-12.15-6.14,4-6.79-3.39-6.09-8.78-6.78-4.74,2.07-10.77-2.69-8.09-6.78-7.43-19.06,5.31L736,666.25l-11.59,6-.7,6.06,8.15,4.74,6.8,0,2.75-7.4,3.38,4,8.85-2,9.53-.64,2.74-6,5.44,1.37,0,8.76-13.62,6-16.35,5.33-12.93,4,3.35,12.81-1.4,12.12,1.31,14.82-6.13,1.33-1.38,6.06-4.08,0-2-12.13,3.43-6.72-2-10.11-2-9.44-4.73-7.43L704,695.77l-2.7-6.75-2.69-7.41-7.49,2.66-10.89,2.66-10.88-2.74-11.56.64-16.3-8.15-10.18-7.44-6.12-.7-7.46-6.09,0-6.73,4.77-4,6.81-1.32,12.91,2.07.7-4.71-.63-14.15-6.75-14.17-10.18-6.1-15-1.4-9.5-8.12L590,595l-6.76-12.15-14.22-18.24L563,553.14l-6.08-10.8L550,538.9l-29.6,60.76Z"/><polygon class="cls-1" points="773 343.01 771 329.78 769 311.46 756 305.35 756 294.15 744 293.14 733 301.28 730 310.44 732 319.6 723 315.53 715 320.62 718 328.76 701 329.78 710 341.99 722 345.05 721 353.19 735 357.26 740 347.08 746 357.26 769 361.33 762 371.51 731 371.51 734 382.71 747 391.87 770.71 383.57 781.09 348.77 773 343.01"/><polygon class="cls-1" points="827 336.9 814 340.98 808 332.83 817 323.67 810 313.49 816 303.32 811 297.21 797 308.4 793 319.6 800 328.76 794 333.85 799 344.03 800 356.24 786.56 351.42 777.7 381.13 779 380.67 795 375.58 797 385.76 815 385.76 831 374.56 833 363.37 839 353.19 827 336.9"/></g><polygon class="cls-1" points="1408 866.76 1399 863.76 1390 865.76 1398 873.76 1409 874.76 1408 866.76"/><polygon class="cls-1" points="1485 938.76 1480 934.76 1477 940.76 1476 950.76 1480 956.76 1486 948.76 1485 938.76"/></g></svg>